<?xml version="1.0" encoding="UTF-8"?>
<svg width="324px" height="49px" viewBox="0 0 324 49" version="1.1" xmlns="http://www.w3.org/2000/svg" xmlns:xlink="http://www.w3.org/1999/xlink">
    <title>logos/logo-normal-bajada</title>
    <g id="Page-1" stroke="none" stroke-width="1" fill="none" fill-rule="evenodd">
        <g id="Logos" transform="translate(-20.000000, -29.000000)">
            <g id="Group" transform="translate(20.000000, 29.000000)">
                <path d="M119.06675,25.4429667 L102.27875,3.87546674 C101.82725,3.29496674 101.13225,2.95496674 100.39625,2.95496674 L92.94725,2.95496674 C91.62975,2.95496674 90.56175,4.02346674 90.56175,5.34046674 L90.56175,43.1144667 C90.56175,44.4319667 91.62975,45.4999667 92.94725,45.4999667 L99.84575,45.4999667 C101.16325,45.4999667 102.23125,44.4319667 102.23125,43.1144667 L102.23125,22.1609667 L119.68775,44.5799667 C120.13975,45.1604667 120.83425,45.4999667 121.56975,45.4999667 L128.35075,45.4999667 C129.66825,45.4999667 130.73625,44.4319667 130.73625,43.1144667 L130.73625,5.34046674 C130.73625,4.02346674 129.66825,2.95496674 128.35075,2.95496674 L121.45225,2.95496674 C120.13475,2.95496674 119.06675,4.02346674 119.06675,5.34046674 L119.06675,25.4429667 Z" id="Fill-2" fill="#15243C"></path>
                <path d="M168.63585,2.95516674 L136.08885,2.95516674 C134.77135,2.95516674 133.70335,4.02316674 133.70335,5.34066674 L133.70335,10.9021667 C133.70335,12.2191667 134.77135,13.2876667 136.08885,13.2876667 L146.46685,13.2876667 L146.46685,43.1141667 C146.46685,44.4316667 147.53485,45.4996667 148.85235,45.4996667 L155.87235,45.4996667 C157.18985,45.4996667 158.25785,44.4316667 158.25785,43.1141667 L158.25785,13.2876667 L168.63585,13.2876667 C169.95335,13.2876667 171.02135,12.2191667 171.02135,10.9021667 L171.02135,5.34066674 C171.02135,4.02316674 169.95335,2.95516674 168.63585,2.95516674" id="Fill-4" fill="#15243C"></path>
                <path d="M180.38145,28.7252167 L185.18345,16.6302167 L189.92395,28.7252167 L180.38145,28.7252167 Z M178.97545,4.10821674 L162.88095,42.1857167 C162.21595,43.7582167 163.37045,45.4997167 165.07795,45.4997167 L172.26345,45.4997167 C173.23895,45.4997167 174.11595,44.9062167 174.47795,44.0002167 L176.91745,37.9027167 L193.32745,37.9027167 L195.82145,44.0157167 C196.18745,44.9132167 197.06045,45.4997167 198.03045,45.4997167 L205.47095,45.4997167 C207.17845,45.4997167 208.33245,43.7582167 207.66795,42.1857167 L191.57295,4.10821674 C191.19995,3.22521674 190.33445,2.65121674 189.37545,2.65121674 L181.17295,2.65121674 C180.21445,2.65121674 179.34945,3.22521674 178.97545,4.10821674 L178.97545,4.10821674 Z" id="Fill-6" fill="#15243C"></path>
                <path d="M237.00985,32.1287667 C237.00985,34.6207667 234.94335,36.0182667 231.35735,36.0182667 L222.24085,36.0182667 L222.24085,28.1782667 L231.23585,28.1782667 C235.18635,28.1782667 237.00985,29.6977667 237.00985,32.0072667 L237.00985,32.1287667 Z M222.24085,12.4367667 L229.89835,12.4367667 C233.42385,12.4367667 235.24735,13.7737667 235.24735,16.0832667 L235.24735,16.2047667 C235.24735,18.6967667 233.24185,19.9122667 229.65585,19.9122667 L222.24085,19.9122667 L222.24085,12.4367667 Z M240.35285,23.2547667 C244.12135,21.6142667 246.91635,18.6967667 246.91635,13.7737667 L246.91635,13.6522667 C246.91635,10.7347667 245.88335,8.48576674 244.18185,6.78426674 C241.68935,4.29226674 237.92135,2.95526674 232.57285,2.95526674 L213.13935,2.95526674 C211.82185,2.95526674 210.75335,4.02326674 210.75335,5.34076674 L210.75335,43.1142667 C210.75335,44.4317667 211.82185,45.4997667 213.13935,45.4997667 L232.69435,45.4997667 C242.84435,45.4997667 248.80085,41.0632667 248.80085,33.7697667 L248.80085,33.6482667 C248.80085,27.8742667 245.51885,24.9567667 240.35285,23.2547667 L240.35285,23.2547667 Z" id="Fill-8" fill="#15243C"></path>
                <path d="M261.693,2.95516674 L254.673,2.95516674 C253.3555,2.95516674 252.287,4.02316674 252.287,5.34066674 L252.287,43.1141667 C252.287,44.4316667 253.3555,45.4996667 254.673,45.4996667 L282.2965,45.4996667 C283.6145,45.4996667 284.6825,44.4316667 284.6825,43.1141667 L284.6825,37.5531667 C284.6825,36.2356667 283.6145,35.1676667 282.2965,35.1676667 L264.0785,35.1676667 L264.0785,5.34066674 C264.0785,4.02316674 263.0105,2.95516674 261.693,2.95516674" id="Fill-10" fill="#15243C"></path>
                <path d="M300.3287,35.4715167 L300.3287,28.7250167 L318.3647,28.7250167 C319.6822,28.7250167 320.7502,27.6570167 320.7502,26.3395167 L320.7502,21.8115167 C320.7502,20.4940167 319.6822,19.4260167 318.3647,19.4260167 L300.3287,19.4260167 L300.3287,12.9835167 L320.4917,12.9835167 C321.8092,12.9835167 322.8777,11.9155167 322.8777,10.5980167 L322.8777,5.34051674 C322.8777,4.02351674 321.8092,2.95501674 320.4917,2.95501674 L291.0447,2.95501674 C289.7272,2.95501674 288.6592,4.02351674 288.6592,5.34051674 L288.6592,43.1145167 C288.6592,44.4315167 289.7272,45.5000167 291.0447,45.5000167 L320.7962,45.5000167 C322.1132,45.5000167 323.1812,44.4315167 323.1812,43.1145167 L323.1812,37.8570167 C323.1812,36.5395167 322.1132,35.4715167 320.7962,35.4715167 L300.3287,35.4715167 Z" id="Fill-12" fill="#15243C"></path>
                <path d="M51.4957,24.2022667 C51.4957,17.9897667 49.1497,12.3262667 45.2972,8.04626674 C42.1617,11.5222667 40.0167,15.9097667 39.3152,20.7647667 C39.3077,20.8202667 39.3012,20.8762667 39.2937,20.9312667 C39.2502,21.2452667 39.2122,21.5607667 39.1812,21.8787667 C39.1682,22.0122667 39.1602,22.1472667 39.1497,22.2817667 C39.1297,22.5297667 39.1092,22.7772667 39.0967,23.0272667 C39.0782,23.4182667 39.0662,23.8107667 39.0662,24.2062667 C39.0662,24.2087667 39.0657,24.2112667 39.0657,24.2132667 C39.0657,24.2252667 39.0652,24.2367667 39.0652,24.2487667 L39.0652,24.2492667 C39.0662,30.4652667 41.4122,36.1287667 45.2647,40.4092667 C48.4007,36.9327667 50.5447,32.5457667 51.2462,27.6902667 C51.2542,27.6347667 51.2607,27.5787667 51.2682,27.5237667 C51.3112,27.2097667 51.3497,26.8942667 51.3807,26.5767667 C51.3932,26.4427667 51.4017,26.3077667 51.4122,26.1732667 C51.4322,25.9252667 51.4527,25.6777667 51.4652,25.4272667 C51.4842,25.0367667 51.4957,24.6442667 51.4957,24.2487667 C51.4957,24.2462667 51.4957,24.2437667 51.4957,24.2417667 C51.4957,24.2297667 51.4967,24.2182667 51.4967,24.2062667 L51.4957,24.2022667 Z" id="Fill-14" fill="#1D788E"></path>
                <path d="M43.8595,41.6739167 C40.775,38.2469167 38.688,34.1019167 37.7475,29.6604167 C35.6805,33.6464167 31.404,36.3024167 26.5385,36.0009167 C20.6745,35.6369167 15.902,30.8644167 15.5375,25.0009167 C15.173,19.1344167 19.107,14.1209167 24.4905,12.8084167 C26.1155,12.4119167 27.2895,11.0034167 27.2895,9.33041674 L27.2895,3.93241674 C27.2895,1.68941674 25.254,0.0229167371 23.0455,0.413416737 C13.7355,2.05991674 6.2685,9.02991674 3.8875,18.0639167 L2.3855,18.0639167 C1.068,18.0639167 -3.55271368e-15,19.1319167 -3.55271368e-15,20.4494167 L-3.55271368e-15,28.0484167 C-3.55271368e-15,29.3654167 1.068,30.4339167 2.3855,30.4339167 L3.949,30.4339167 C6.7305,40.1594167 15.925,47.9584167 26.1465,48.4289167 C33.0595,48.7469167 39.3695,46.1624167 43.9655,41.7919167 L43.8595,41.6739167 Z" id="Fill-16" fill="#15243C"></path>
                <path d="M88.1764,18.0213167 L86.6129,18.0213167 C83.8314,8.29581674 74.6364,0.496316737 64.4154,0.0263167371 C57.5024,-0.291683263 51.1919,2.29281674 46.5959,6.66331674 L46.7024,6.78131674 C49.7869,10.2083167 51.8739,14.3528167 52.8144,18.7943167 C54.8819,14.8083167 59.1579,12.1523167 64.0234,12.4543167 C69.8869,12.8178167 74.6599,17.5903167 75.0239,23.4543167 C75.3884,29.3208167 71.4549,34.3338167 66.0714,35.6468167 C64.4464,36.0428167 63.2719,37.4518167 63.2719,39.1248167 L63.2719,44.5223167 C63.2719,46.7653167 65.3079,48.4323167 67.5164,48.0418167 C76.8264,46.3953167 84.2929,39.4253167 86.6744,30.3913167 L88.1764,30.3913167 C89.4939,30.3913167 90.5619,29.3233167 90.5619,28.0058167 L90.5619,20.4068167 C90.5619,19.0893167 89.4939,18.0213167 88.1764,18.0213167" id="Fill-18" fill="#15243C"></path>
            </g>
        </g>
    </g>
</svg>