<?xml version="1.0" encoding="UTF-8"?>
<svg width="200px" height="55px" viewBox="0 0 84 23" version="1.1" xmlns="http://www.w3.org/2000/svg" xmlns:xlink="http://www.w3.org/1999/xlink">
    <!-- Generator: Sketch 46 (44423) - http://www.bohemiancoding.com/sketch -->
    <title>logo_negative</title>
    <desc>Created with Sketch.</desc>
    <defs></defs>
    <g id="Page-1" stroke="none" stroke-width="1" fill="none" fill-rule="evenodd">
        <g id="heypay_enrolamiento1" transform="translate(-20.000000, -43.000000)">
            <g id="Logo/logo" transform="translate(20.000000, 43.000000)">
                <path d="M39.8995238,21.9573333 L39.8995238,5.57257143 L42.7909524,5.57257143 L43.0319048,6.7532381 L43.1282857,6.7532381 C43.5941293,6.33558521 44.1202034,5.98620775 44.7065238,5.70509524 C45.2928442,5.42398272 45.899235,5.28342857 46.5257143,5.28342857 C47.248575,5.28342857 47.89914,5.42799855 48.4774286,5.71714286 C49.0557172,6.00628716 49.5456488,6.41590211 49.9472381,6.946 C50.3488274,7.47609789 50.6580465,8.11461531 50.8749048,8.86157143 C51.091763,9.60852754 51.2001905,10.4398049 51.2001905,11.3554286 C51.2001905,12.3834972 51.0596363,13.2950913 50.7785238,14.0902381 C50.4974113,14.8853849 50.119923,15.5600448 49.6460476,16.1142381 C49.1721722,16.6684313 48.6340506,17.0900938 48.0316667,17.3792381 C47.4292827,17.6683824 46.8068286,17.8129524 46.1642857,17.8129524 C45.6502514,17.8129524 45.1522881,17.7045249 44.670381,17.4876667 C44.1884738,17.2708084 43.7387005,16.9615893 43.3210476,16.56 L43.4415238,18.4635238 L43.4415238,21.9573333 L39.8995238,21.9573333 Z M45.3450476,14.9215238 C45.9554634,14.9215238 46.4775216,14.6444313 46.9112381,14.0902381 C47.3449545,13.5360448 47.5618095,12.6405141 47.5618095,11.403619 C47.5618095,9.25110035 46.8710863,8.17485714 45.489619,8.17485714 C44.7988854,8.17485714 44.1161938,8.5362821 43.4415238,9.25914286 L43.4415238,14.1504762 C43.7627953,14.4396205 44.0840619,14.6404121 44.4053333,14.7528571 C44.7266048,14.8653021 45.0398397,14.9215238 45.3450476,14.9215238 Z M56.718,17.8129524 C56.1718385,17.8129524 55.6778911,17.7205882 55.2361429,17.5358571 C54.7943946,17.3511261 54.4209222,17.0941128 54.1157143,16.7648095 C53.8105064,16.4355063 53.5735723,16.0540022 53.4049048,15.6202857 C53.2362373,15.1865693 53.1519048,14.712701 53.1519048,14.1986667 C53.1519048,12.945708 53.6819947,11.9658448 54.7421905,11.2590476 C55.8023863,10.5522504 57.5131311,10.0783822 59.8744762,9.83742857 C59.842349,9.30733068 59.6857316,8.88566823 59.404619,8.57242857 C59.1235065,8.25918891 58.6536541,8.10257143 57.9950476,8.10257143 C57.4810133,8.10257143 56.9710025,8.19895142 56.465,8.39171429 C55.9589975,8.58447715 55.41686,8.84952212 54.8385714,9.18685714 L53.5615238,6.84961905 C54.3325753,6.38377545 55.1397577,6.00628716 55.9830952,5.71714286 C56.8264328,5.42799855 57.7219635,5.28342857 58.6697143,5.28342857 C60.2118172,5.28342857 61.3884563,5.72115435 62.1996667,6.59661905 C63.0108771,7.47208374 63.4164762,8.83345108 63.4164762,10.6807619 L63.4164762,17.5238095 L60.5250476,17.5238095 L60.2840952,16.2949524 L60.1877143,16.2949524 C59.67368,16.7447324 59.1355584,17.1101732 58.5733333,17.3912857 C58.0111083,17.6723982 57.39267,17.8129524 56.718,17.8129524 Z M57.9227619,15.0660952 C58.3243512,15.0660952 58.6697128,14.9777469 58.9588571,14.8010476 C59.2480014,14.6243483 59.5532047,14.3753667 59.8744762,14.0540952 L59.8744762,11.9578095 C58.6215175,12.1345088 57.7540976,12.3915221 57.2721905,12.7288571 C56.7902833,13.0661922 56.5493333,13.4677754 56.5493333,13.933619 C56.5493333,14.3191448 56.6738242,14.6042689 56.9228095,14.789 C57.1717949,14.9737311 57.505109,15.0660952 57.9227619,15.0660952 Z M67.7295238,22.1982857 C67.3600616,22.1982857 67.0468267,22.1782065 66.7898095,22.1380476 C66.5327924,22.0978887 66.2838107,22.0376512 66.0428571,21.9573333 L66.6693333,19.2586667 C66.7817783,19.2907938 66.910285,19.3229205 67.0548571,19.3550476 C67.1994293,19.3871748 67.3359676,19.4032381 67.4644762,19.4032381 C68.0588284,19.4032381 68.5166333,19.2586681 68.8379048,18.9695238 C69.1591762,18.6803795 69.4001262,18.3028912 69.5607619,17.8370476 L69.7294286,17.2105714 L65.1272381,5.57257143 L68.6933333,5.57257143 L70.4040952,10.7048571 C70.5807945,11.2510186 70.7414278,11.8052035 70.886,12.3674286 C71.0305722,12.9296536 71.1831738,13.5079335 71.3438095,14.1022857 L71.4401905,14.1022857 C71.5686991,13.5400607 71.7012215,12.9738282 71.8377619,12.4035714 C71.9743023,11.8333146 72.1148564,11.2670822 72.2594286,10.7048571 L73.7051429,5.57257143 L77.1025714,5.57257143 L72.9581905,17.6442857 C72.6690462,18.3992736 72.3678587,19.061886 72.054619,19.6321429 C71.7413794,20.2023997 71.3799544,20.676268 70.9703333,21.0537619 C70.5607122,21.4312559 70.0948756,21.71638 69.5728095,21.9091429 C69.0507434,22.1019057 68.436321,22.1982857 67.7295238,22.1982857 Z M80.3313333,11.9578095 L79.8253333,4.58466667 L79.7048571,1.38 L83.2709524,1.38 L83.1504762,4.58466667 L82.6444762,11.9578095 L80.3313333,11.9578095 Z M81.4879048,17.8129524 C80.877489,17.8129524 80.3674782,17.6001132 79.9578571,17.1744286 C79.548236,16.7487439 79.3434286,16.2226698 79.3434286,15.5961905 C79.3434286,14.9536476 79.548236,14.4195418 79.9578571,13.9938571 C80.3674782,13.5681725 80.877489,13.3553333 81.4879048,13.3553333 C82.0983205,13.3553333 82.6083313,13.5681725 83.0179524,13.9938571 C83.4275735,14.4195418 83.632381,14.9536476 83.632381,15.5961905 C83.632381,16.2226698 83.4275735,16.7487439 83.0179524,17.1744286 C82.6083313,17.6001132 82.0983205,17.8129524 81.4879048,17.8129524 Z" id="pay!" fill="#F33437"></path>
                <path d="M0.470952381,17.5238095 L0.470952381,0.633047619 L4.01295238,0.633047619 L4.01295238,4.77742857 L3.84428571,6.92190476 C4.29406574,6.52031545 4.81612401,6.146843 5.41047619,5.80147619 C6.00482837,5.45610938 6.71161495,5.28342857 7.53085714,5.28342857 C8.83200651,5.28342857 9.77572723,5.70910685 10.3620476,6.56047619 C10.948368,7.41184553 11.2415238,8.59250039 11.2415238,10.1024762 L11.2415238,17.5238095 L7.69952381,17.5238095 L7.69952381,10.5602857 C7.69952381,9.69285281 7.58306466,9.09850954 7.35014286,8.7772381 C7.11722106,8.45596665 6.7437486,8.29533333 6.22971429,8.29533333 C5.77993426,8.29533333 5.3944143,8.39572915 5.07314286,8.59652381 C4.75187141,8.79731846 4.39847812,9.0824426 4.01295238,9.45190476 L4.01295238,17.5238095 L0.470952381,17.5238095 Z M19.5784762,17.8129524 C18.7271069,17.8129524 17.9319719,17.6723982 17.1930476,17.3912857 C16.4541233,17.1101732 15.81159,16.7005582 15.2654286,16.1624286 C14.7192671,15.6242989 14.2935888,14.9697181 13.988381,14.1986667 C13.6831731,13.4276152 13.5305714,12.544132 13.5305714,11.5481905 C13.5305714,10.5843761 13.6912047,9.7129404 14.0124762,8.93385714 C14.3337476,8.15477388 14.7554101,7.49617729 15.2774762,6.95804762 C15.7995423,6.41991794 16.3979014,6.00628716 17.0725714,5.71714286 C17.7472415,5.42799855 18.4459964,5.28342857 19.1688571,5.28342857 C20.0202265,5.28342857 20.7631556,5.42799855 21.3976667,5.71714286 C22.0321778,6.00628716 22.5622677,6.40787045 22.9879524,6.92190476 C23.413637,7.43593908 23.7308878,8.04232984 23.9397143,8.74109524 C24.1485407,9.43986064 24.2529524,10.198853 24.2529524,11.0180952 C24.2529524,11.3393667 24.236889,11.64457 24.2047619,11.9337143 C24.1726348,12.2228586 24.1405081,12.4397136 24.108381,12.5842857 L16.9520952,12.5842857 C17.112731,13.4517186 17.4701401,14.090236 18.0243333,14.4998571 C18.5785266,14.9094782 19.2572023,15.1142857 20.060381,15.1142857 C20.9117503,15.1142857 21.7711385,14.8492407 22.6385714,14.3191429 L23.8192381,16.463619 C23.2088223,16.8812719 22.5301466,17.2105702 21.7831905,17.4515238 C21.0362344,17.6924774 20.3013369,17.8129524 19.5784762,17.8129524 Z M16.928,10.2470476 L21.2410476,10.2470476 C21.2410476,9.57237758 21.088446,9.02622431 20.7832381,8.60857143 C20.4780302,8.19091855 19.9640036,7.98209524 19.2411429,7.98209524 C18.6789178,7.98209524 18.1849704,8.16682355 17.7592857,8.53628571 C17.333601,8.90574788 17.0565086,9.47599614 16.928,10.2470476 Z M28.0359048,22.1982857 C27.6664426,22.1982857 27.3532076,22.1782065 27.0961905,22.1380476 C26.8391733,22.0978887 26.5901917,22.0376512 26.3492381,21.9573333 L26.9757143,19.2586667 C27.0881593,19.2907938 27.2166659,19.3229205 27.3612381,19.3550476 C27.5058102,19.3871748 27.6423486,19.4032381 27.7708571,19.4032381 C28.3652093,19.4032381 28.8230143,19.2586681 29.1442857,18.9695238 C29.4655572,18.6803795 29.7065071,18.3028912 29.8671429,17.8370476 L30.0358095,17.2105714 L25.433619,5.57257143 L28.9997143,5.57257143 L30.7104762,10.7048571 C30.8871755,11.2510186 31.0478088,11.8052035 31.192381,12.3674286 C31.3369531,12.9296536 31.4895548,13.5079335 31.6501905,14.1022857 L31.7465714,14.1022857 C31.87508,13.5400607 32.0076025,12.9738282 32.1441429,12.4035714 C32.2806832,11.8333146 32.4212374,11.2670822 32.5658095,10.7048571 L34.0115238,5.57257143 L37.4089524,5.57257143 L33.2645714,17.6442857 C32.9754271,18.3992736 32.6742397,19.061886 32.361,19.6321429 C32.0477603,20.2023997 31.6863354,20.676268 31.2767143,21.0537619 C30.8670932,21.4312559 30.4012566,21.71638 29.8791905,21.9091429 C29.3571244,22.1019057 28.7427019,22.1982857 28.0359048,22.1982857 Z" id="hey" fill="#FF6055"></path>
            </g>
        </g>
    </g>
</svg>