<?xml version="1.0" encoding="UTF-8"?>
<svg width="263px" height="77px" viewBox="0 0 263 77" version="1.1" xmlns="http://www.w3.org/2000/svg" xmlns:xlink="http://www.w3.org/1999/xlink">
    <title>atom / logo / x / color</title>
    <defs>
        <polygon id="path-1" points="0 0 77 0 77 77 0 77"></polygon>
        <linearGradient x1="0.131848951%" y1="99.8694765%" x2="108.357133%" y2="-8.26236192%" id="linearGradient-3">
            <stop stop-color="#002CFF" offset="0%"></stop>
            <stop stop-color="#002CFF" offset="0.023754223%"></stop>
            <stop stop-color="#00FFDB" offset="100%"></stop>
        </linearGradient>
    </defs>
    <g id="atom-/-logo-/-x-/-color" stroke="none" stroke-width="1" fill="none" fill-rule="evenodd">
        <g id="Group" transform="translate(93.000000, 15.000000)" fill="#333333">
            <path d="M-2.23820962e-13,11.6520599 C1.73232022,11.1505799 3.96756051,10.6836598 6.70320087,10.2494998 C9.43920122,9.81677971 12.3120016,9.60005968 15.321962,9.60005968 C18.3762024,9.60005968 20.9185227,9.99965973 22.948203,10.7970598 C24.9768032,11.5951799 26.5842034,12.7241401 27.7707636,14.1825003 C28.9558837,15.6426605 29.7986438,17.3749807 30.3012039,19.3812609 C30.802684,21.3882612 31.053604,23.6220615 31.053604,26.0844618 L31.053604,46.3992644 L20.8620027,46.3992644 L20.8620027,27.315662 C20.8620027,24.0324615 20.4282026,21.7068612 19.5624025,20.3388611 C18.6958824,18.9705009 17.0766022,18.2868608 14.7063619,18.2868608 C13.9759218,18.2868608 13.2012017,18.3207008 12.3807616,18.3894608 C11.5596015,18.4575008 10.8298814,18.5377808 10.1919613,18.6288608 L10.1919613,46.3992644 L-2.23820962e-13,46.3992644 L-2.23820962e-13,11.6520599 Z" id="Fill-1"></path>
            <path d="M60.8069599,24.9660032 C60.7608798,24.1005631 60.6125598,23.256003 60.3627198,22.4352029 C60.1110798,21.6144028 59.7233597,20.8854027 59.1995596,20.2464026 C58.6746796,19.6084825 58.0133595,19.0836025 57.2159594,18.6735624 C56.4178393,18.2628024 55.4260392,18.0576023 54.240559,18.0576023 C53.1004389,18.0576023 52.1201587,18.2523624 51.2993586,18.6390024 C50.4789185,19.0270825 49.7945584,19.5400825 49.2477184,20.1780026 C48.7001583,20.8173627 48.2778782,21.5575228 47.9819582,22.4010029 C47.6849582,23.245563 47.4689581,24.1005631 47.3321581,24.9660032 L60.8069599,24.9660032 Z M36.8669568,28.8648037 C36.8669568,25.6737633 37.3565568,22.879803 38.337557,20.4858026 C39.3178371,18.0918023 40.6055572,16.0974021 42.2021575,14.5008019 C43.7980377,12.9052817 45.6329579,11.6964015 47.7083582,10.8756014 C49.7830384,10.0548013 51.9149587,9.64440125 54.103759,9.64440125 C59.2099996,9.64440125 63.2456002,11.2068014 66.2105606,14.3298019 C69.1740809,17.4538823 70.6565611,22.0485628 70.6565611,28.1124036 C70.6565611,28.7056837 70.6331611,29.3551238 70.5881611,30.0618039 C70.5424411,30.769204 70.4963611,31.3956041 70.4513611,31.9428041 L47.3321581,31.9428041 C47.5596781,34.0408844 48.5399583,35.7048046 50.2733585,36.9360048 C52.0060387,38.1672049 54.331639,38.782805 57.2501594,38.782805 C59.1196396,38.782805 60.9545599,38.611805 62.7563601,38.2698049 C64.5574403,37.9278049 66.0280405,37.5066048 67.1681607,37.0044048 L68.5361609,45.2808058 C67.9889608,45.5544059 67.2592407,45.8280059 66.3477206,46.101606 C65.4344005,46.375206 64.4202803,46.614606 63.3039202,46.819806 C62.18576,47.0250061 60.9887599,47.1960061 59.7125597,47.3328061 C58.4352795,47.4696061 57.1583594,47.5380061 55.8821592,47.5380061 C52.6439588,47.5380061 49.8287584,47.0592061 47.4347581,46.101606 C45.0407578,45.1440058 43.0571576,43.8336057 41.4839574,42.1686054 C39.9107572,40.5046852 38.748317,38.532965 37.9955569,36.2520047 C37.2431568,33.9724844 36.8669568,31.5100841 36.8669568,28.8648037 L36.8669568,28.8648037 Z" id="Fill-3"></path>
            <path d="M87.1411073,39.2616051 C89.0102275,39.2616051 90.3321477,39.079805 91.1083078,38.714405 C91.8830279,38.350085 92.2711079,37.6437649 92.2711079,36.5940047 C92.2711079,35.7735646 91.7685479,35.0550045 90.7659477,34.4394044 C89.7626276,33.8241644 88.2355074,33.1293643 86.1835071,32.3535642 C84.5865469,31.7610041 83.1397067,31.145404 81.8397466,30.5064039 C80.5405064,29.8684839 79.4342263,29.1042038 78.5227061,28.2150036 C77.609746,27.3258035 76.9037859,26.2656034 76.4023059,25.0344032 C75.8997458,23.8035631 75.6499058,22.3218029 75.6499058,20.5884027 C75.6499058,17.2144822 76.9037859,14.5468819 79.4115463,12.5856016 C81.9189466,10.6254014 85.362707,9.64440125 89.7403076,9.64440125 C91.9291079,9.64440125 94.0257481,9.83916127 96.0331084,10.2258013 C98.0390287,10.6138814 99.6345489,11.0361614 100.821109,11.4912015 L99.0427088,19.4256025 C97.8565086,19.0152025 96.5684285,18.6508824 95.1781083,18.3312024 C93.7863481,18.0129623 92.2250279,17.8524023 90.4927077,17.8524023 C87.3002273,17.8524023 85.7047071,18.7416024 85.7047071,20.5200027 C85.7047071,20.9304027 85.7731071,21.2961628 85.9099071,21.6144028 C86.0467071,21.9340828 86.3203071,22.2418829 86.7303472,22.5378029 C87.1411073,22.8348029 87.6991073,23.155563 88.4065074,23.499723 C89.1131875,23.8449631 90.0135476,24.2240431 91.1083078,24.6369632 C93.3421081,25.4653233 95.1885483,26.2814434 96.6487085,27.0853235 C98.1074287,27.8899236 99.2583488,28.7589637 100.102909,29.6910038 C100.946029,30.624124 101.539309,31.6598441 101.880949,32.7967242 C102.223309,33.9339644 102.394309,35.2537246 102.394309,36.7542047 C102.394309,40.3038052 101.060509,42.9886856 98.3929087,44.8084858 C95.7253084,46.627566 91.9514279,47.5380061 87.0727072,47.5380061 C83.8802268,47.5380061 81.2241465,47.2644061 79.1041062,46.717206 C76.9837059,46.170006 75.5131058,45.7149659 74.6923056,45.3492059 L76.4023059,37.0728048 C78.1346261,37.7568049 79.9130263,38.2935649 81.7375066,38.680205 C83.5609068,39.068285 85.362707,39.2616051 87.1411073,39.2616051" id="Fill-5"></path>
            <path d="M107.933234,1.64160021 L118.125195,1.0658141e-14 L118.125195,10.6020014 L130.368437,10.6020014 L130.368437,19.0836025 L118.125195,19.0836025 L118.125195,31.7376041 C118.125195,33.8817644 118.501035,35.5917646 119.253435,36.8676048 C120.005835,38.1445249 121.521436,38.782805 123.802036,38.782805 C124.896436,38.782805 126.025396,38.680205 127.187836,38.475005 C128.350997,38.2698049 129.410837,37.9854049 130.368437,37.6200049 L131.805197,45.5544059 C130.573997,46.0566059 129.205997,46.489686 127.700836,46.8540061 C126.196036,47.2186861 124.349596,47.4012061 122.160796,47.4012061 C119.378715,47.4012061 117.075795,47.0250061 115.252035,46.272606 C113.427915,45.5202059 111.968834,44.4718857 110.874434,43.1262056 C109.780394,41.7816054 109.016114,40.1508052 108.583394,38.2356049 C108.149234,36.3204047 107.933234,34.2000044 107.933234,31.8744041 L107.933234,1.64160021 Z" id="Fill-7"></path>
            <path d="M158.966363,28.4781021 C158.966363,25.3317017 158.338883,22.8588614 157.085003,21.0567012 C155.830403,19.2559809 154.041203,18.3549008 151.715602,18.3549008 C149.390002,18.3549008 147.588562,19.2559809 146.312362,21.0567012 C145.035081,22.8588614 144.396801,25.3317017 144.396801,28.4781021 C144.396801,31.6245025 145.035081,34.1211028 146.312362,35.9679031 C147.588562,37.8150633 149.390002,38.7381034 151.715602,38.7381034 C154.041203,38.7381034 155.830403,37.8150633 157.085003,35.9679031 C158.338883,34.1211028 158.966363,31.6245025 158.966363,28.4781021 M169.363165,28.4781021 C169.363165,31.3059025 168.952405,33.8935828 168.131964,36.2415031 C167.311164,38.5908634 166.124964,40.5967837 164.575164,42.2607039 C163.023924,43.9257041 161.165604,45.2137843 159.000563,46.1256644 C156.834083,47.0371845 154.405883,47.4933046 151.715602,47.4933046 C149.070682,47.4933046 146.664802,47.0371845 144.499401,46.1256644 C142.333281,45.2137843 140.474961,43.9257041 138.925161,42.2607039 C137.37392,40.5967837 136.1654,38.5908634 135.29996,36.2415031 C134.43308,33.8935828 134,31.3059025 134,28.4781021 C134,25.6510218 134.44496,23.0745014 135.3338,20.7489011 C136.223,18.4233008 137.4542,16.4400606 139.027401,14.7981004 C140.600601,13.1565001 142.470081,11.88066 144.636201,10.9676999 C146.801602,10.0561797 149.161762,9.60005968 151.715602,9.60005968 C154.315163,9.60005968 156.697283,10.0561797 158.863763,10.9676999 C161.028803,11.88066 162.887484,13.1565001 164.438004,14.7981004 C165.987804,16.4400606 167.196684,18.4233008 168.063564,20.7489011 C168.929005,23.0745014 169.363165,25.6510218 169.363165,28.4781021" id="Fill-10"></path>
        </g>
        <g id="Group-6">
            <mask id="mask-2" fill="white">
                <use xlink:href="#path-1"></use>
            </mask>
            <g id="Clip-2"></g>
            <path d="M58.5524968,0 C68.7410653,0 77,8.2593379 77,18.4475904 L77,18.4475904 L77,58.5524096 C77,68.7406621 68.7410653,77 58.5524968,77 L58.5524968,77 L18.4478674,77 C8.25929884,77 0,68.7406621 0,58.5524096 L0,58.5524096 L0,18.4475904 C0,8.2593379 8.25929884,0 18.4478674,0 L18.4478674,0 Z M65.2310181,21.0520076 L30.8887071,21.0520076 L30.8887071,29.4012911 L24.1071312,29.4012911 C22.0019768,29.4012911 20.0923713,29.6161409 18.3764938,30.044384 C16.6617089,30.4740837 15.1807085,31.1947411 13.9327646,32.2081769 C12.6855489,33.222341 11.7209141,34.5962875 11.0384959,36.3303807 C10.3568061,38.0655663 10.0148687,40.2388271 10.0148687,42.8501632 C10.0148687,45.422899 10.2005855,47.878742 10.5701983,50.2176921 C10.9412677,52.5566422 11.3403767,54.4673493 11.7693461,55.9483566 L11.7693461,55.9483566 L46.1116571,55.9483566 L46.1116571,47.5987089 L52.8932329,47.5987089 C54.9983873,47.5987089 56.9079929,47.3838591 58.6238703,46.955616 C60.3386553,46.5262804 61.8196556,45.8052589 63.0675996,44.7921873 C64.3148153,43.777659 65.2794501,42.4037125 65.9618682,40.6696193 C66.6435581,38.9344337 66.9854955,36.7611729 66.9854955,34.1498368 C66.9854955,31.577101 66.7997787,29.121258 66.4301659,26.7823079 C66.0590964,24.4433578 65.6599874,22.5330149 65.2310181,21.0520076 L65.2310181,21.0520076 Z M59.2084039,29.75 C59.2857513,30.2963963 59.3540204,30.9215786 59.4124849,31.6244529 C59.4709493,32.3269624 59.5,32.9904435 59.5,33.6156259 C59.5,35.6454625 58.917171,37.0318792 57.7507868,37.7741465 C56.5844026,38.5153195 54.6020578,38.8866355 51.8033892,38.8866355 L51.8033892,38.8866355 L42.2849386,38.8866355 C39.834515,38.8866355 37.8478126,40.8825503 37.8478126,43.3442515 L37.8478126,43.3442515 L37.8478126,47.25 L17.7912329,47.25 C17.7138855,46.703239 17.6456165,46.0784214 17.587152,45.3755471 C17.5290507,44.6730376 17.5,44.0095565 17.5,43.3843741 C17.5,41.3545375 18.0824658,39.9681208 19.2488501,39.2258535 C20.4152343,38.4846805 22.3975791,38.1129997 25.1962476,38.1129997 L25.1962476,38.1129997 L34.7146983,38.1129997 C37.1651219,38.1129997 39.1521874,36.1178144 39.1521874,33.6557485 L39.1521874,33.6557485 L39.1521874,29.75 Z" id="Combined-Shape" fill="url(#linearGradient-3)" mask="url(#mask-2)"></path>
        </g>
    </g>
</svg>